<?xml version="1.0" standalone="no"?>
<!DOCTYPE svg PUBLIC "-//W3C//DTD SVG 20010904//EN"
 "http://www.w3.org/TR/2001/REC-SVG-20010904/DTD/svg10.dtd">
<svg version="1.0" xmlns="http://www.w3.org/2000/svg"
 width="200.000000pt" height="200.000000pt" viewBox="0 0 200.000000 200.000000"
 preserveAspectRatio="xMidYMid meet">
<metadata>
Created by potrace 1.16, written by Peter Selinger 2001-2019
</metadata>
<g transform="translate(0.000000,200.000000) scale(0.100000,-0.100000)"
fill="#000000" stroke="none">
<path d="M825 1884 c-321 -78 -553 -396 -532 -729 13 -207 95 -372 249 -503
63 -53 196 -126 253 -138 43 -9 21 8 -45 36 -125 51 -250 167 -315 291 -132
251 -87 547 115 750 250 251 649 251 900 0 326 -326 214 -872 -214 -1047 -79
-33 -88 -51 -13 -25 219 76 375 233 453 456 26 73 28 92 28 220 0 127 -3 148
-28 220 -47 136 -114 234 -225 328 -67 58 -192 120 -281 141 -82 20 -264 19
-345 0z"/>
<path d="M856 1714 c-94 -23 -193 -80 -272 -159 -116 -114 -174 -253 -174
-417 0 -166 53 -291 175 -413 72 -72 185 -148 199 -135 2 3 -2 50 -9 105 -18
127 -19 185 -1 211 8 11 64 41 125 68 l110 48 5 42 c3 22 10 106 16 185 6 80
16 151 22 158 14 18 53 16 68 -2 9 -11 16 -90 22 -268 5 -139 13 -262 18 -274
17 -41 53 -29 112 37 41 46 59 60 80 60 20 0 32 -7 39 -24 10 -22 1 -42 -79
-183 -50 -87 -89 -159 -87 -161 12 -12 122 64 190 133 124 123 175 245 175
415 0 165 -53 293 -170 411 -122 123 -258 179 -425 178 -44 0 -106 -7 -139
-15z"/>
</g>
</svg>
